<svg xmlns="http://www.w3.org/2000/svg" style="display: none;">
  <defs>
    <!-- User Icons -->
    <symbol id="user" viewBox="0 0 24 24" fill="none" stroke="currentColor" stroke-width="2">
      <path d="M20 21v-2a4 4 0 0 0-4-4H8a4 4 0 0 0-4 4v2"/>
      <circle cx="12" cy="7" r="4"/>
    </symbol>
    
    <symbol id="user-plus" viewBox="0 0 24 24" fill="none" stroke="currentColor" stroke-width="2">
      <path d="M16 21v-2a4 4 0 0 0-4-4H5a4 4 0 0 0-4 4v2"/>
      <circle cx="8.5" cy="7" r="4"/>
      <line x1="20" y1="8" x2="20" y2="14"/>
      <line x1="23" y1="11" x2="17" y2="11"/>
    </symbol>
    
    <symbol id="users" viewBox="0 0 24 24" fill="none" stroke="currentColor" stroke-width="2">
      <path d="M17 21v-2a4 4 0 0 0-4-4H5a4 4 0 0 0-4 4v2"/>
      <circle cx="9" cy="7" r="4"/>
      <path d="M23 21v-2a4 4 0 0 0-3-3.87"/>
      <path d="M16 3.13a4 4 0 0 1 0 7.75"/>
    </symbol>
    
    <!-- Payment Icons -->
    <symbol id="credit-card" viewBox="0 0 24 24" fill="none" stroke="currentColor" stroke-width="2">
      <rect x="1" y="4" width="22" height="16" rx="2" ry="2"/>
      <line x1="1" y1="10" x2="23" y2="10"/>
    </symbol>
    
    <symbol id="dollar-sign" viewBox="0 0 24 24" fill="none" stroke="currentColor" stroke-width="2">
      <line x1="12" y1="1" x2="12" y2="23"/>
      <path d="M17 5H9.5a3.5 3.5 0 0 0 0 7h5a3.5 3.5 0 0 1 0 7H6"/>
    </symbol>
    
    <!-- Navigation Icons -->
    <symbol id="home" viewBox="0 0 24 24" fill="none" stroke="currentColor" stroke-width="2">
      <path d="M3 9l9-7 9 7v11a2 2 0 0 1-2 2H5a2 2 0 0 1-2-2z"/>
      <polyline points="9,22 9,12 15,12 15,22"/>
    </symbol>
    
    <symbol id="bar-chart" viewBox="0 0 24 24" fill="none" stroke="currentColor" stroke-width="2">
      <line x1="12" y1="20" x2="12" y2="10"/>
      <line x1="18" y1="20" x2="18" y2="4"/>
      <line x1="6" y1="20" x2="6" y2="16"/>
    </symbol>
    
    <symbol id="calendar" viewBox="0 0 24 24" fill="none" stroke="currentColor" stroke-width="2">
      <rect x="3" y="4" width="18" height="18" rx="2" ry="2"/>
      <line x1="16" y1="2" x2="16" y2="6"/>
      <line x1="8" y1="2" x2="8" y2="6"/>
      <line x1="3" y1="10" x2="21" y2="10"/>
    </symbol>
    
    <!-- Action Icons -->
    <symbol id="plus" viewBox="0 0 24 24" fill="none" stroke="currentColor" stroke-width="2">
      <line x1="12" y1="5" x2="12" y2="19"/>
      <line x1="5" y1="12" x2="19" y2="12"/>
    </symbol>
    
    <symbol id="edit" viewBox="0 0 24 24" fill="none" stroke="currentColor" stroke-width="2">
      <path d="M11 4H4a2 2 0 0 0-2 2v14a2 2 0 0 0 2 2h14a2 2 0 0 0 2-2v-7"/>
      <path d="M18.5 2.5a2.121 2.121 0 0 1 3 3L12 15l-4 1 1-4 9.5-9.5z"/>
    </symbol>
    
    <symbol id="trash" viewBox="0 0 24 24" fill="none" stroke="currentColor" stroke-width="2">
      <polyline points="3,6 5,6 21,6"/>
      <path d="M19 6v14a2 2 0 0 1-2 2H7a2 2 0 0 1-2-2V6m3 0V4a2 2 0 0 1 2-2h4a2 2 0 0 1 2 2v2"/>
      <line x1="10" y1="11" x2="10" y2="17"/>
      <line x1="14" y1="11" x2="14" y2="17"/>
    </symbol>
    
    <symbol id="save" viewBox="0 0 24 24" fill="none" stroke="currentColor" stroke-width="2">
      <path d="M19 21H5a2 2 0 0 1-2-2V5a2 2 0 0 1 2-2h11l5 5v11a2 2 0 0 1-2 2z"/>
      <polyline points="17,21 17,13 7,13 7,21"/>
      <polyline points="7,3 7,8 15,8"/>
    </symbol>
    
    <symbol id="search" viewBox="0 0 24 24" fill="none" stroke="currentColor" stroke-width="2">
      <circle cx="11" cy="11" r="8"/>
      <path d="m21 21-4.35-4.35"/>
    </symbol>
    
    <symbol id="x" viewBox="0 0 24 24" fill="none" stroke="currentColor" stroke-width="2">
      <line x1="18" y1="6" x2="6" y2="18"/>
      <line x1="6" y1="6" x2="18" y2="18"/>
    </symbol>
    
    <!-- Settings Icons -->
    <symbol id="settings" viewBox="0 0 24 24" fill="none" stroke="currentColor" stroke-width="2">
      <circle cx="12" cy="12" r="3"/>
      <path d="M19.4 15a1.65 1.65 0 0 0 .33 1.82l.06.06a2 2 0 0 1 0 2.83 2 2 0 0 1-2.83 0l-.06-.06a1.65 1.65 0 0 0-1.82-.33 1.65 1.65 0 0 0-1 1.51V21a2 2 0 0 1-2 2 2 2 0 0 1-2-2v-.09A1.65 1.65 0 0 0 9 19.4a1.65 1.65 0 0 0-1.82.33l-.06.06a2 2 0 0 1-2.83 0 2 2 0 0 1 0-2.83l.06-.06a1.65 1.65 0 0 0 .33-1.82 1.65 1.65 0 0 0-1.51-1H3a2 2 0 0 1-2-2 2 2 0 0 1 2-2h.09A1.65 1.65 0 0 0 4.6 9a1.65 1.65 0 0 0-.33-1.82l-.06-.06a2 2 0 0 1 0-2.83 2 2 0 0 1 2.83 0l.06.06a1.65 1.65 0 0 0 1.82.33H9a1.65 1.65 0 0 0 1 1.51V3a2 2 0 0 1 2-2 2 2 0 0 1 2 2v.09a1.65 1.65 0 0 0 1 1.51 1.65 1.65 0 0 0 1.82-.33l.06-.06a2 2 0 0 1 2.83 0 2 2 0 0 1 0 2.83l-.06.06a1.65 1.65 0 0 0-.33 1.82V9a1.65 1.65 0 0 0 1.51 1H21a2 2 0 0 1 2 2 2 2 0 0 1-2 2h-.09a1.65 1.65 0 0 0-1.51 1z"/>
    </symbol>
    
    <!-- Theme Icons -->
    <symbol id="sun" viewBox="0 0 24 24" fill="none" stroke="currentColor" stroke-width="2">
      <circle cx="12" cy="12" r="5"/>
      <line x1="12" y1="1" x2="12" y2="3"/>
      <line x1="12" y1="21" x2="12" y2="23"/>
      <line x1="4.22" y1="4.22" x2="5.64" y2="5.64"/>
      <line x1="18.36" y1="18.36" x2="19.78" y2="19.78"/>
      <line x1="1" y1="12" x2="3" y2="12"/>
      <line x1="21" y1="12" x2="23" y2="12"/>
      <line x1="4.22" y1="19.78" x2="5.64" y2="18.36"/>
      <line x1="18.36" y1="5.64" x2="19.78" y2="4.22"/>
    </symbol>
    
    <symbol id="moon" viewBox="0 0 24 24" fill="none" stroke="currentColor" stroke-width="2">
      <path d="M21 12.79A9 9 0 1 1 11.21 3 7 7 0 0 0 21 12.79z"/>
    </symbol>
    
    <!-- Connectivity Icons -->
    <symbol id="wifi" viewBox="0 0 24 24" fill="none" stroke="currentColor" stroke-width="2">
      <path d="M5 12.55a11 11 0 0 1 14 0"/>
      <path d="M1.42 9a16 16 0 0 1 21.16 0"/>
      <path d="M8.53 16.11a6 6 0 0 1 6.95 0"/>
      <line x1="12" y1="20" x2="12.01" y2="20"/>
    </symbol>
    
    <symbol id="wifi-off" viewBox="0 0 24 24" fill="none" stroke="currentColor" stroke-width="2">
      <line x1="1" y1="1" x2="23" y2="23"/>
      <path d="M16.72 11.06A10.94 10.94 0 0 1 19 12.55"/>
      <path d="M5 12.55a10.94 10.94 0 0 1 5.17-2.39"/>
      <path d="M10.71 5.05A16 16 0 0 1 22.58 9"/>
      <path d="M1.42 9a15.91 15.91 0 0 1 4.7-2.88"/>
      <path d="M8.53 16.11a6 6 0 0 1 6.95 0"/>
      <line x1="12" y1="20" x2="12.01" y2="20"/>
    </symbol>
    
    <!-- Status Icons -->
    <symbol id="check-circle" viewBox="0 0 24 24" fill="none" stroke="currentColor" stroke-width="2">
      <path d="M22 11.08V12a10 10 0 1 1-5.93-9.14"/>
      <polyline points="22,4 12,14.01 9,11.01"/>
    </symbol>
    
    <symbol id="x-circle" viewBox="0 0 24 24" fill="none" stroke="currentColor" stroke-width="2">
      <circle cx="12" cy="12" r="10"/>
      <line x1="15" y1="9" x2="9" y2="15"/>
      <line x1="9" y1="9" x2="15" y2="15"/>
    </symbol>
    
    <symbol id="alert-triangle" viewBox="0 0 24 24" fill="none" stroke="currentColor" stroke-width="2">
      <path d="M10.29 3.86L1.82 18a2 2 0 0 0 1.71 3h16.94a2 2 0 0 0 1.71-3L13.71 3.86a2 2 0 0 0-3.42 0z"/>
      <line x1="12" y1="9" x2="12" y2="13"/>
      <line x1="12" y1="17" x2="12.01" y2="17"/>
    </symbol>
    
    <symbol id="info" viewBox="0 0 24 24" fill="none" stroke="currentColor" stroke-width="2">
      <circle cx="12" cy="12" r="10"/>
      <line x1="12" y1="16" x2="12" y2="12"/>
      <line x1="12" y1="8" x2="12.01" y2="8"/>
    </symbol>
    
    <!-- Activity Icons -->
    <symbol id="activity" viewBox="0 0 24 24" fill="none" stroke="currentColor" stroke-width="2">
      <polyline points="22,12 18,12 15,21 9,3 6,12 2,12"/>
    </symbol>
    
    <symbol id="trending-up" viewBox="0 0 24 24" fill="none" stroke="currentColor" stroke-width="2">
      <polyline points="23,6 13.5,15.5 8.5,10.5 1,18"/>
      <polyline points="17,6 23,6 23,12"/>
    </symbol>
    
    <!-- File Icons -->
    <symbol id="download" viewBox="0 0 24 24" fill="none" stroke="currentColor" stroke-width="2">
      <path d="M21 15v4a2 2 0 0 1-2 2H5a2 2 0 0 1-2-2v-4"/>
      <polyline points="7,10 12,15 17,10"/>
      <line x1="12" y1="15" x2="12" y2="3"/>
    </symbol>
    
    <symbol id="upload" viewBox="0 0 24 24" fill="none" stroke="currentColor" stroke-width="2">
      <path d="M21 15v4a2 2 0 0 1-2 2H5a2 2 0 0 1-2-2v-4"/>
      <polyline points="17,8 12,3 7,8"/>
      <line x1="12" y1="3" x2="12" y2="15"/>
    </symbol>
    
    <symbol id="file-text" viewBox="0 0 24 24" fill="none" stroke="currentColor" stroke-width="2">
      <path d="M14 2H6a2 2 0 0 0-2 2v16a2 2 0 0 0 2 2h12a2 2 0 0 0 2-2V8z"/>
      <polyline points="14,2 14,8 20,8"/>
      <line x1="16" y1="13" x2="8" y2="13"/>
      <line x1="16" y1="17" x2="8" y2="17"/>
      <polyline points="10,9 9,9 8,9"/>
    </symbol>
    
    <!-- Education Icons -->
    <symbol id="book-open" viewBox="0 0 24 24" fill="none" stroke="currentColor" stroke-width="2">
      <path d="M2 3h6a4 4 0 0 1 4 4v14a3 3 0 0 0-3-3H2z"/>
      <path d="M22 3h-6a4 4 0 0 0-4 4v14a3 3 0 0 1 3-3h7z"/>
    </symbol>
    
    <symbol id="graduation-cap" viewBox="0 0 24 24" fill="none" stroke="currentColor" stroke-width="2">
      <path d="M2 7 L12 2 L22 7 L12 12 Z"/>
      <path d="M2 17 L12 22 L22 17"/>
      <path d="M2 12 L12 17 L22 12"/>
    </symbol>
    
    <!-- Arrow Icons -->
    <symbol id="arrow-left" viewBox="0 0 24 24" fill="none" stroke="currentColor" stroke-width="2">
      <line x1="19" y1="12" x2="5" y2="12"/>
      <polyline points="12,19 5,12 12,5"/>
    </symbol>
    
    <symbol id="arrow-right" viewBox="0 0 24 24" fill="none" stroke="currentColor" stroke-width="2">
      <line x1="5" y1="12" x2="19" y2="12"/>
      <polyline points="12,5 19,12 12,19"/>
    </symbol>
    
    <symbol id="chevron-down" viewBox="0 0 24 24" fill="none" stroke="currentColor" stroke-width="2">
      <polyline points="6,9 12,15 18,9"/>
    </symbol>
    
    <symbol id="chevron-up" viewBox="0 0 24 24" fill="none" stroke="currentColor" stroke-width="2">
      <polyline points="18,15 12,9 6,15"/>
    </symbol>
    
    <!-- More Icons -->
    <symbol id="eye" viewBox="0 0 24 24" fill="none" stroke="currentColor" stroke-width="2">
      <path d="M1 12s4-8 11-8 11 8 11 8-4 8-11 8-11-8-11-8z"/>
      <circle cx="12" cy="12" r="3"/>
    </symbol>
    
    <symbol id="eye-off" viewBox="0 0 24 24" fill="none" stroke="currentColor" stroke-width="2">
      <path d="M17.94 17.94A10.07 10.07 0 0 1 12 20c-7 0-11-8-11-8a18.45 18.45 0 0 1 5.06-5.94M9.9 4.24A9.12 9.12 0 0 1 12 4c7 0 11 8 11 8a18.5 18.5 0 0 1-2.16 3.19m-6.72-1.07a3 3 0 1 1-4.24-4.24"/>
      <line x1="1" y1="1" x2="23" y2="23"/>
    </symbol>
    
    <symbol id="globe" viewBox="0 0 24 24" fill="none" stroke="currentColor" stroke-width="2">
      <circle cx="12" cy="12" r="10"/>
      <line x1="2" y1="12" x2="22" y2="12"/>
      <path d="M12 2a15.3 15.3 0 0 1 4 10 15.3 15.3 0 0 1-4 10 15.3 15.3 0 0 1-4-10 15.3 15.3 0 0 1 4-10z"/>
    </symbol>
    
    <symbol id="bell" viewBox="0 0 24 24" fill="none" stroke="currentColor" stroke-width="2">
      <path d="M18 8A6 6 0 0 0 6 8c0 7-3 9-3 9h18s-3-2-3-9"/>
      <path d="M13.73 21a2 2 0 0 1-3.46 0"/>
    </symbol>
    
    <symbol id="bell-off" viewBox="0 0 24 24" fill="none" stroke="currentColor" stroke-width="2">
      <path d="M13.73 21a2 2 0 0 1-3.46 0"/>
      <path d="M18.63 13A17.89 17.89 0 0 1 18 8"/>
      <path d="M6.26 6.26A5.86 5.86 0 0 0 6 8c0 7-3 9-3 9h14"/>
      <path d="M18 8a6 6 0 0 0-9.33-5"/>
      <line x1="1" y1="1" x2="23" y2="23"/>
    </symbol>
    
    <!-- Filter and Sort Icons -->
    <symbol id="filter" viewBox="0 0 24 24" fill="none" stroke="currentColor" stroke-width="2">
      <polygon points="22,3 2,3 10,12.46 10,19 14,21 14,12.46"/>
    </symbol>
    
    <symbol id="sort-asc" viewBox="0 0 24 24" fill="none" stroke="currentColor" stroke-width="2">
      <path d="M11 11h4"/>
      <path d="M11 15h7"/>
      <path d="M11 19h10"/>
      <path d="M9 7 6 4 3 7"/>
      <path d="M6 6v14"/>
    </symbol>
    
    <symbol id="sort-desc" viewBox="0 0 24 24" fill="none" stroke="currentColor" stroke-width="2">
      <path d="M11 5h4"/>
      <path d="M11 9h7"/>
      <path d="M11 13h10"/>
      <path d="M3 17l3 3 3-3"/>
      <path d="M6 18V4"/>
    </symbol>
  </defs>
</svg>
