<svg width="100" height="100" viewBox="0 0 100 100" fill="none" xmlns="http://www.w3.org/2000/svg">
  <!-- Background Circle -->
  <circle cx="50" cy="50" r="48" fill="#2563eb" stroke="#1d4ed8" stroke-width="2"/>
  
  <!-- Main Logo Elements -->
  <!-- Open Book -->
  <path d="M25 35 L50 30 L75 35 L75 65 L50 60 L25 65 Z" fill="#ffffff" opacity="0.9"/>
  <path d="M50 30 L50 60" stroke="#2563eb" stroke-width="1.5"/>
  <path d="M30 40 L45 38" stroke="#2563eb" stroke-width="1" opacity="0.6"/>
  <path d="M30 45 L45 43" stroke="#2563eb" stroke-width="1" opacity="0.6"/>
  <path d="M30 50 L45 48" stroke="#2563eb" stroke-width="1" opacity="0.6"/>
  <path d="M55 38 L70 40" stroke="#2563eb" stroke-width="1" opacity="0.6"/>
  <path d="M55 43 L70 45" stroke="#2563eb" stroke-width="1" opacity="0.6"/>
  <path d="M55 48 L70 50" stroke="#2563eb" stroke-width="1" opacity="0.6"/>
  
  <!-- Letters I.L.C -->
  <text x="50" y="22" text-anchor="middle" fill="#ffffff" font-family="Arial, sans-serif" font-size="8" font-weight="bold">I.L.C</text>
  
  <!-- Guinea Flag (Left) -->
  <g transform="translate(15, 70)">
    <rect width="12" height="8" fill="#ce1126" rx="1"/>
    <rect x="4" y="0" width="4" height="8" fill="#fcd116"/>
    <rect x="8" y="0" width="4" height="8" fill="#009460"/>
  </g>
  
  <!-- Germany Flag (Right) -->
  <g transform="translate(73, 70)">
    <rect width="12" height="8" fill="#000000" rx="1"/>
    <rect x="0" y="2.67" width="12" height="2.66" fill="#dd0000"/>
    <rect x="0" y="5.33" width="12" height="2.67" fill="#ffce00"/>
  </g>
  
  <!-- Decorative Elements -->
  <!-- Graduation Cap -->
  <g transform="translate(35, 72)">
    <polygon points="5,3 10,1 15,3 15,4 10,2 5,4" fill="#ffffff" opacity="0.8"/>
    <rect x="9.5" y="2" width="1" height="3" fill="#ffffff" opacity="0.8"/>
    <circle cx="9.5" cy="5.5" r="0.5" fill="#ffffff" opacity="0.8"/>
  </g>
  
  <!-- Globe -->
  <g transform="translate(55, 72)">
    <circle cx="5" cy="3" r="3" fill="none" stroke="#ffffff" stroke-width="0.8" opacity="0.8"/>
    <path d="M2 3 Q5 1 8 3" fill="none" stroke="#ffffff" stroke-width="0.5" opacity="0.8"/>
    <path d="M2 3 Q5 5 8 3" fill="none" stroke="#ffffff" stroke-width="0.5" opacity="0.8"/>
    <line x1="5" y1="0" x2="5" y2="6" stroke="#ffffff" stroke-width="0.5" opacity="0.8"/>
  </g>
  
  <!-- Institut Text -->
  <text x="50" y="88" text-anchor="middle" fill="#ffffff" font-family="Arial, sans-serif" font-size="5" font-weight="300" opacity="0.9">INSTITUT</text>
  
  <!-- Outer Ring -->
  <circle cx="50" cy="50" r="47" fill="none" stroke="#ffffff" stroke-width="1" opacity="0.3"/>
  <circle cx="50" cy="50" r="45" fill="none" stroke="#ffffff" stroke-width="0.5" opacity="0.2"/>
</svg>
